<?xml version="1.0" encoding="utf-8"?>
<!-- Generator: Adobe Illustrator 16.0.0, SVG Export Plug-In . SVG Version: 6.00 Build 0)  -->
<!DOCTYPE svg PUBLIC "-//W3C//DTD SVG 1.1//EN" "http://www.w3.org/Graphics/SVG/1.1/DTD/svg11.dtd">
<svg version="1.1" id="Layer_1" xmlns="http://www.w3.org/2000/svg" xmlns:xlink="http://www.w3.org/1999/xlink" x="0px" y="0px"
	 width="612px" height="792px" viewBox="0 0 612 792" enable-background="new 0 0 612 792" xml:space="preserve">
<g>
	<path fill="#040000" d="M82.599,485.104c0,28.152,22.848,51.001,51,51.001s51-22.849,51-51.001c0-28.151-22.848-51-51-51
		S82.599,456.952,82.599,485.104z M102.999,485.103c0-16.83,13.77-30.6,30.6-30.6s30.6,13.77,30.6,30.6s-13.77,30.6-30.6,30.6
		S102.999,501.933,102.999,485.103z"/>
	<circle fill="#FFFFFF" cx="133.599" cy="485.103" r="30.6"/>
	<path fill="#040000" d="M429.398,485.103c0,28.152,22.85,51.002,51.001,51.002s51.001-22.849,51.001-51.001
		c0-28.151-22.85-51-51.001-51S429.398,456.95,429.398,485.103z M449.799,485.103c0-16.83,13.771-30.6,30.601-30.6
		S511,468.272,511,485.103s-13.771,30.6-30.601,30.6S449.799,501.933,449.799,485.103z"/>
	<circle fill="#FFFFFF" cx="480.399" cy="485.103" r="30.601"/>
	<path fill="#040000" d="M1,444.303v40.8c0,5.609,4.59,10.199,10.2,10.199h40.799c5.61,0,10.2-4.59,10.2-10.199
		c0-39.371,32.03-71.399,71.401-71.399c39.372,0,71.4,32.027,71.4,71.399c0,5.609,4.59,10.199,10.199,10.199h183.601
		c5.609,0,10.199-4.59,10.199-10.199c0-39.371,32.028-71.399,71.399-71.399s71.399,32.027,71.399,71.399
		c0,5.609,4.59,10.199,10.199,10.199h40.801c5.609,0,10.199-4.59,10.199-10.199v-40.801c0-5.609-4.59-10.199-10.199-10.199v-30.601
		c0-38.862-70.178-60.181-137.904-61.201c-58.65-70.889-149.94-98.327-271.524-81.497c-0.102,0-0.204,0-0.306,0.102
		c-65.892,11.526-95.676,46.41-117.3,83.13l-57.63,19.177c-4.081,1.429-6.937,5.305-6.937,9.69v61.201
		C5.589,434.104,0.999,438.693,1,444.303z M143.698,342.303h-42.739c11.424-17.035,24.582-31.417,42.33-42.229L143.698,342.303z
		 M266.2,276.41v65.894H164.099l-0.511-52.225c9.689-3.877,20.502-6.937,32.844-9.078C221.218,277.533,244.372,276.104,266.2,276.41
		L266.2,276.41z M437.355,342.303H286.599v-65.077C349.635,281.715,399.513,303.338,437.355,342.303z M21.399,454.501
		c5.609,0,10.199-4.59,10.199-10.199v-30.6h10.2c5.609,0,10.199-4.591,10.199-10.2s-4.59-10.2-10.199-10.2h-10.2v-13.056
		l52.633-17.543h375.768c61.506,0,103.733,15.605,117.504,30.6h-5.304c-5.609,0-10.199,4.59-10.199,10.2
		c0,5.61,4.59,10.2,10.199,10.2h10.199v30.6c0,5.609,4.591,10.2,10.2,10.2v20.4h-21.011c-4.998-45.799-44.064-81.601-91.188-81.601
		s-86.19,35.802-91.188,81.601H224.788c-4.998-45.799-44.064-81.601-91.188-81.601s-86.19,35.802-91.188,81.601H21.399V454.501z"/>
	<path fill="#FFFFFF" d="M485.498,515.183c14.412-2.459,25.5-14.994,25.5-30.08s-11.086-27.621-25.5-30.08
		c-14.411,2.459-25.499,14.994-25.499,30.08S471.087,512.725,485.498,515.183z"/>
	<path fill="#F4F4F5" d="M449.799,485.103c0,16.83,13.77,30.6,30.6,30.6c1.745,0,3.428-0.234,5.1-0.52
		c-14.411-2.459-25.499-14.994-25.499-30.08c0-15.085,11.088-27.621,25.501-30.08c-1.674-0.285-3.356-0.52-5.101-0.52
		C463.569,454.503,449.799,468.272,449.799,485.103z"/>
	<path fill="#FFFFFF" d="M138.699,514.663c14.412-2.459,25.499-14.994,25.499-30.08c0-15.087-11.086-27.622-25.499-30.08
		c-14.412,2.458-25.5,14.993-25.5,30.08C113.199,499.669,124.286,512.215,138.699,514.663z"/>
	<path fill="#F4F4F5" d="M102.999,485.103c0,16.83,13.77,30.6,30.6,30.6c1.745,0,3.428-0.234,5.101-0.52
		c-14.412-2.459-25.5-14.994-25.5-30.08s11.087-27.621,25.5-30.08c-1.674-0.285-3.356-0.52-5.101-0.52
		C116.769,454.503,102.999,468.272,102.999,485.103z"/>
	<g>
		<path fill="#FFFFFF" d="M121.46,326.634h22.084l-0.255-26.203C135.149,308.234,127.958,316.946,121.46,326.634z"/>
		<path fill="#FFFFFF" d="M196.431,281c-12.342,2.142-23.153,5.201-32.844,9.078c3.948-1.582,8.212-2.928,12.557-4.224l0.397,40.779
			h89.658V276.41C244.371,276.104,221.218,277.533,196.431,281z"/>
		<path fill="#FFFFFF" d="M425.717,331.42c-36.262-32.049-82.295-50.143-139.118-54.192c4.264,0.306,8.303,0.887,12.444,1.346
			v48.063h121.115C422.045,328.186,423.871,329.807,425.717,331.42z"/>
	</g>
	<g>
		<path fill="#F4F4F5" d="M143.696,342.303l-0.152-15.667L143.696,342.303z"/>
		<polygon fill="#F4F4F5" points="143.289,300.075 143.289,300.431 143.289,300.431 		"/>
		<path fill="#F4F4F5" d="M143.289,300.075c-17.748,10.812-31.997,24.379-42.33,42.229
			C112.383,325.268,125.541,310.886,143.289,300.075z"/>
		<path fill="#F4F4F5" d="M100.959,342.303h42.739l-0.153-15.667h-22.083c6.496-9.69,13.678-18.401,21.827-26.204v-0.357
			C125.541,310.886,112.383,325.268,100.959,342.303z"/>
		<path fill="#F4F4F5" d="M176.144,285.855c-4.347,1.296-8.61,2.642-12.557,4.224l0.51,52.225h102.103v-15.667h-89.658
			L176.144,285.855z"/>
		<path fill="#F4F4F5" d="M425.717,331.419c3.968,3.499,7.905,7.038,11.639,10.884C433.622,338.458,429.705,334.887,425.717,331.419
			z"/>
		<path fill="#F4F4F5" d="M299.044,326.636v-48.063c-4.142-0.459-8.191-1.04-12.444-1.347v65.077h150.757
			c-3.724-3.835-7.672-7.375-11.64-10.884c-1.846-1.611-3.672-3.233-5.559-4.783H299.044L299.044,326.636z"/>
	</g>
	<g>
		<path fill="#2787C9" d="M391.199,463.877c-0.07,0.307-0.162,0.612-0.234,0.918C391.027,464.479,391.118,464.184,391.199,463.877z"
			/>
		<path fill="#2787C9" d="M223.033,464.784c-0.062-0.306-0.153-0.602-0.225-0.897C222.88,464.193,222.961,464.479,223.033,464.784z"
			/>
		<path fill="#2787C9" d="M569.832,464.784c-0.061-0.306-0.152-0.602-0.225-0.897C569.68,464.193,569.761,464.479,569.832,464.784z"
			/>
		<path fill="#2787C9" d="M44.399,463.877c-0.07,0.307-0.162,0.612-0.234,0.918C44.227,464.479,44.318,464.184,44.399,463.877z"/>
		<path fill="#2787C9" d="M21.4,454.501h25.756c12.616-35.577,46.593-61.2,86.434-61.2c39.842,0,73.828,25.623,86.435,61.2h173.94
			c12.617-35.577,46.594-61.2,86.435-61.2s73.827,25.623,86.435,61.2h25.765c-5.609,0-10.2-4.59-10.2-10.199v-30.6h-10.199
			c-5.609,0-10.199-4.591-10.199-10.2s4.59-10.2,10.199-10.2h5.304c-13.771-14.994-55.998-30.601-117.504-30.601H84.231
			l-52.633,17.545v13.057h10.2c5.609,0,10.199,4.59,10.199,10.2c0,5.61-4.59,10.2-10.199,10.2h-10.2v30.6
			C31.599,449.912,27.009,454.503,21.4,454.501z"/>
	</g>
	<g>
		<path fill="#396EB6" d="M571.588,474.903c-0.379-3.438-1.011-6.804-1.756-10.119C570.607,468.09,571.209,471.465,571.588,474.903z
			"/>
		<path fill="#396EB6" d="M569.607,463.887c-0.754-3.203-1.691-6.324-2.773-9.384l0,0
			C567.916,457.563,568.834,460.705,569.607,463.887z"/>
		<path fill="#396EB6" d="M592.599,454.503h-25.767c1.081,3.06,2.021,6.182,2.775,9.384c0.071,0.307,0.152,0.592,0.225,0.897
			c0.755,3.315,1.377,6.681,1.754,10.119h21.013V454.503z"/>
		<path fill="#396EB6" d="M44.165,464.794c-0.755,3.316-1.377,6.671-1.755,10.109C42.788,471.465,43.39,468.1,44.165,464.794z"/>
		<path fill="#396EB6" d="M47.164,454.503c-1.081,3.06-2.009,6.182-2.774,9.373C45.165,460.694,46.083,457.563,47.164,454.503
			L47.164,454.503z"/>
		<path fill="#396EB6" d="M21.399,454.503v20.4h21.002c0.377-3.438,1.01-6.795,1.754-10.109c0.071-0.306,0.163-0.611,0.234-0.918
			c0.755-3.192,1.693-6.313,2.774-9.373H21.399z"/>
		<path fill="#396EB6" d="M222.809,463.887c-0.755-3.203-1.692-6.324-2.774-9.384l0,0
			C221.114,457.563,222.032,460.705,222.809,463.887z"/>
		<path fill="#396EB6" d="M224.788,474.903c-0.378-3.438-1.011-6.804-1.755-10.119C223.808,468.09,224.41,471.465,224.788,474.903z"
			/>
		<path fill="#396EB6" d="M390.967,464.794c-0.756,3.316-1.377,6.671-1.756,10.109C389.588,471.465,390.19,468.1,390.967,464.794z"
			/>
		<path fill="#396EB6" d="M393.964,454.503c-1.081,3.06-2.009,6.182-2.774,9.373C391.965,460.694,392.883,457.563,393.964,454.503
			L393.964,454.503z"/>
		<path fill="#396EB6" d="M393.964,454.504h-173.93c1.08,3.06,2.019,6.182,2.774,9.384c0.071,0.307,0.152,0.592,0.225,0.898
			c0.755,3.314,1.377,6.681,1.755,10.118h164.423c0.379-3.438,1.011-6.794,1.756-10.108c0.07-0.307,0.162-0.612,0.233-0.919
			C391.955,460.685,392.883,457.563,393.964,454.504z"/>
	</g>
	<g>
	</g>
	<g>
	</g>
	<g>
	</g>
	<g>
	</g>
	<g>
	</g>
	<g>
	</g>
	<g>
	</g>
	<g>
	</g>
	<g>
	</g>
	<g>
	</g>
	<g>
	</g>
	<g>
	</g>
	<g>
	</g>
	<g>
	</g>
	<g>
	</g>
</g>
</svg>
